<svg width="13" height="18" viewBox="0 0 13 18" fill="none" xmlns="http://www.w3.org/2000/svg">
<path fill-rule="evenodd" clip-rule="evenodd" d="M1.99681 7.35278C1.20645 7.35278 1.0415 7.5079 1.0415 8.25092V9.59817C1.0415 10.3413 1.20645 10.4963 1.99681 10.4963H3.90741V15.8852C3.90741 16.6282 4.07236 16.7834 4.86271 16.7834H6.77332C7.5637 16.7834 7.7286 16.6282 7.7286 15.8852V10.4963H9.87392C10.4734 10.4963 10.6279 10.3868 10.7925 9.84496L11.2019 8.49771C11.484 7.5695 11.3102 7.35278 10.2833 7.35278H7.7286V5.10744C7.7286 4.61141 8.15629 4.20929 8.68389 4.20929H11.4029C12.1932 4.20929 12.3582 4.05421 12.3582 3.31114V1.51485C12.3582 0.771778 12.1932 0.616699 11.4029 0.616699H8.68389C6.0459 0.616699 3.90741 2.62727 3.90741 5.10744V7.35278H1.99681Z" stroke="#020202" stroke-opacity="0.68" stroke-width="1.2125" stroke-linejoin="round"/>
</svg>
