<svg width="21" height="20" viewBox="0 0 21 20" fill="none" xmlns="http://www.w3.org/2000/svg">
<path d="M2.81982 9.69992C2.81982 6.07993 2.81982 4.26993 3.94441 3.14534C5.069 2.02075 6.879 2.02075 10.499 2.02075C14.119 2.02075 15.929 2.02075 17.0536 3.14534C18.1782 4.26993 18.1782 6.07993 18.1782 9.69992C18.1782 13.3199 18.1782 15.1299 17.0536 16.2545C15.929 17.3791 14.119 17.3791 10.499 17.3791C6.879 17.3791 5.069 17.3791 3.94441 16.2545C2.81982 15.1299 2.81982 13.3199 2.81982 9.69992Z" stroke="#020202" stroke-opacity="0.68" stroke-width="1.2125" stroke-linejoin="round"/>
<path d="M14.1363 9.7C14.1363 11.709 12.5078 13.3375 10.4988 13.3375C8.48989 13.3375 6.86133 11.709 6.86133 9.7C6.86133 7.69107 8.48989 6.0625 10.4988 6.0625C12.5078 6.0625 14.1363 7.69107 14.1363 9.7Z" stroke="#020202" stroke-opacity="0.68" stroke-width="1.2125"/>
<path d="M14.9504 5.25415H14.9429" stroke="#020202" stroke-opacity="0.68" stroke-width="1.61667" stroke-linecap="round" stroke-linejoin="round"/>
</svg>
