<svg width="43" height="41" viewBox="0 0 43 41" fill="none" xmlns="http://www.w3.org/2000/svg">
<path d="M22.4271 29.9591V40.0562C22.4271 40.1738 22.3803 40.2867 22.2971 40.3699C22.2139 40.4531 22.1011 40.4998 21.9834 40.4998H0.899742C0.782068 40.4998 0.669215 40.4531 0.586008 40.3699C0.5028 40.2867 0.456055 40.1738 0.456055 40.0562V20.1414C0.456055 20.0238 0.5028 19.9109 0.586008 19.8277C0.669215 19.7445 0.782068 19.6978 0.899742 19.6978H10.9968C11.1145 19.6978 11.2273 19.7445 11.3106 19.8277C11.3938 19.9109 11.4405 20.0238 11.4405 20.1414V29.0717C11.4405 29.1894 11.4873 29.3022 11.5705 29.3854C11.6537 29.4686 11.7665 29.5154 11.8842 29.5154H21.9802C22.0387 29.515 22.0968 29.5261 22.151 29.5482C22.2052 29.5704 22.2545 29.603 22.296 29.6442C22.3375 29.6855 22.3705 29.7345 22.393 29.7885C22.4155 29.8426 22.4271 29.9005 22.4271 29.9591Z" fill="#00D094"/>
<path d="M40.6961 38.1643C40.7619 38.2477 40.7957 38.352 40.7911 38.4582C40.7866 38.5643 40.7441 38.6653 40.6714 38.7428C40.5987 38.8203 40.5006 38.8691 40.3949 38.8804C40.2893 38.8917 40.1831 38.8647 40.0956 38.8043L0.64697 11.4855C0.587894 11.4446 0.539652 11.3899 0.506396 11.3261C0.47314 11.2624 0.455864 11.1916 0.456056 11.1197V0.943687C0.456056 0.826014 0.502802 0.71316 0.586009 0.629953C0.669217 0.546745 0.78207 0.5 0.899743 0.5H10.6715C10.7377 0.500616 10.8029 0.516075 10.8624 0.54524C10.9218 0.574404 10.974 0.61653 11.015 0.668516L11.4362 1.20179L40.6961 38.1643Z" fill="#00D094"/>
<path d="M42.5443 0.943687V17.8934C42.5443 18.1387 42.2979 18.3371 41.995 18.3371H29.4843C29.1814 18.3371 28.9351 18.1387 28.9351 17.8934V0.943687C28.9351 0.698379 29.1814 0.5 29.4843 0.5H41.995C42.2979 0.5 42.5443 0.698379 42.5443 0.943687Z" fill="#00D094"/>
</svg>
