<svg width="64" height="64" viewBox="0 0 64 64" fill="none" xmlns="http://www.w3.org/2000/svg">
<g clip-path="url(#clip0_3992_1041)">
<path opacity="0.1" d="M44.0002 16C46.449 15.9997 48.7998 16.9617 50.5458 18.6788C52.2917 20.3958 53.293 22.7302 53.3335 25.1787C53.5735 27.4853 53.5389 30.888 51.9789 34.816C50.3842 38.832 47.2749 43.2107 41.6002 47.4667C41.32 47.6768 41.0013 47.8297 40.662 47.9166C40.3228 48.0035 39.9697 48.0227 39.6231 47.9732C38.9229 47.8732 38.2912 47.4991 37.8669 46.9333C37.4425 46.3675 37.2603 45.6563 37.3603 44.9562C37.4604 44.2561 37.8344 43.6243 38.4002 43.2C42.5709 40.072 44.9602 37.032 46.3282 34.3733C45.0456 34.7027 43.7077 34.7554 42.4032 34.5279C41.0987 34.3004 39.8575 33.7979 38.7622 33.0538C37.6668 32.3098 36.7423 31.3411 36.0501 30.2123C35.3579 29.0834 34.9138 27.8202 34.7474 26.5065C34.5809 25.1929 34.6959 23.8588 35.0847 22.593C35.4735 21.3272 36.1272 20.1586 37.0024 19.1648C37.8775 18.1711 38.9541 17.3749 40.1607 16.8293C41.3672 16.2836 42.676 16.0009 44.0002 16ZM20.0002 16C22.449 15.9997 24.7998 16.9617 26.5458 18.6788C28.2917 20.3958 29.293 22.7302 29.3335 25.1787C29.5735 27.4853 29.5389 30.888 27.9789 34.816C26.3869 38.832 23.2749 43.2107 17.6002 47.4667C17.32 47.6768 17.0012 47.8297 16.662 47.9166C16.3228 48.0035 15.9697 48.0227 15.6231 47.9732C14.9229 47.8732 14.2912 47.4991 13.8669 46.9333C13.4425 46.3675 13.2603 45.6563 13.3603 44.9562C13.4604 44.2561 13.8344 43.6243 14.4002 43.2C18.5709 40.072 20.9602 37.032 22.3282 34.3733C21.0456 34.7027 19.7077 34.7554 18.4032 34.5279C17.0987 34.3004 15.8575 33.7979 14.7622 33.0538C13.6668 32.3098 12.7423 31.3411 12.0501 30.2123C11.3579 29.0834 10.9138 27.8202 10.7474 26.5065C10.5809 25.1929 10.6959 23.8588 11.0847 22.593C11.4735 21.3272 12.1272 20.1586 13.0024 19.1648C13.8775 18.1711 14.9541 17.3749 16.1607 16.8293C17.3672 16.2836 18.676 16.0009 20.0002 16Z" fill="white"/>
</g>
<defs>
<clipPath id="clip0_3992_1041">
<rect width="64" height="64" fill="white"/>
</clipPath>
</defs>
</svg>
