<svg width="10" height="9" viewBox="0 0 10 9" fill="none" xmlns="http://www.w3.org/2000/svg">
<path d="M7.33317 8.58342C6.86904 8.58342 6.42392 8.39904 6.09573 8.07085C5.76755 7.74266 5.58317 7.29754 5.58317 6.83342C5.58317 6.36929 5.76755 5.92417 6.09573 5.59598C6.42392 5.26779 6.86904 5.08342 7.33317 5.08342C7.7973 5.08342 8.24242 5.26779 8.57061 5.59598C8.8988 5.92417 9.08317 6.36929 9.08317 6.83342C9.08317 7.29754 8.8988 7.74266 8.57061 8.07085C8.24242 8.39904 7.7973 8.58342 7.33317 8.58342ZM2.6665 8.58342C2.20238 8.58342 1.75726 8.39904 1.42907 8.07085C1.10088 7.74266 0.916504 7.29754 0.916504 6.83342C0.916504 6.36929 1.10088 5.92417 1.42907 5.59598C1.75726 5.26779 2.20238 5.08342 2.6665 5.08342C3.13063 5.08342 3.57575 5.26779 3.90394 5.59598C4.23213 5.92417 4.4165 6.36929 4.4165 6.83342C4.4165 7.29754 4.23213 7.74266 3.90394 8.07085C3.57575 8.39904 3.13063 8.58342 2.6665 8.58342ZM7.33317 3.91675C6.86904 3.91675 6.42392 3.73237 6.09573 3.40419C5.76755 3.076 5.58317 2.63088 5.58317 2.16675C5.58317 1.70262 5.76755 1.2575 6.09573 0.929311C6.42392 0.601123 6.86904 0.416748 7.33317 0.416748C7.7973 0.416748 8.24242 0.601123 8.57061 0.929311C8.8988 1.2575 9.08317 1.70262 9.08317 2.16675C9.08317 2.63088 8.8988 3.076 8.57061 3.40419C8.24242 3.73237 7.7973 3.91675 7.33317 3.91675ZM2.6665 3.91675C2.20238 3.91675 1.75726 3.73237 1.42907 3.40419C1.10088 3.076 0.916504 2.63088 0.916504 2.16675C0.916504 1.70262 1.10088 1.2575 1.42907 0.929311C1.75726 0.601123 2.20238 0.416748 2.6665 0.416748C3.13063 0.416748 3.57575 0.601123 3.90394 0.929311C4.23213 1.2575 4.4165 1.70262 4.4165 2.16675C4.4165 2.63088 4.23213 3.076 3.90394 3.40419C3.57575 3.73237 3.13063 3.91675 2.6665 3.91675Z" fill="black"/>
</svg>
