<svg width="48" height="48" viewBox="0 0 48 48" fill="none" xmlns="http://www.w3.org/2000/svg">
<rect width="48" height="48" rx="24" transform="matrix(-1 0 0 1 48 0)" fill="#00D094"/>
<path d="M18.7749 33.1C18.5249 32.85 18.3999 32.554 18.3999 32.212C18.3999 31.87 18.5249 31.5743 18.7749 31.325L26.0999 24L18.7499 16.65C18.5166 16.4167 18.3999 16.125 18.3999 15.775C18.3999 15.425 18.5249 15.125 18.7749 14.875C19.0249 14.625 19.3209 14.5 19.6629 14.5C20.0049 14.5 20.3006 14.625 20.5499 14.875L28.9499 23.3C29.0499 23.4 29.1209 23.5083 29.1629 23.625C29.2049 23.7417 29.2256 23.8667 29.2249 24C29.2249 24.1333 29.2039 24.2583 29.1619 24.375C29.1199 24.4917 29.0492 24.6 28.9499 24.7L20.5249 33.125C20.2916 33.3583 20.0039 33.475 19.6619 33.475C19.3199 33.475 19.0242 33.35 18.7749 33.1Z" fill="#0C263A"/>
</svg>
