<svg width="48" height="48" viewBox="0 0 48 48" fill="none" xmlns="http://www.w3.org/2000/svg">
<rect width="48" height="48" rx="24" transform="matrix(-1 0 0 1 48 0)" fill="#2B4B43"/>
<path d="M28.8501 33.1C29.1001 32.85 29.2251 32.554 29.2251 32.212C29.2251 31.87 29.1001 31.5743 28.8501 31.325L21.5251 24L28.8751 16.65C29.1084 16.4167 29.2251 16.125 29.2251 15.775C29.2251 15.425 29.1001 15.125 28.8501 14.875C28.6001 14.625 28.3041 14.5 27.9621 14.5C27.6201 14.5 27.3244 14.625 27.0751 14.875L18.6751 23.3C18.5751 23.4 18.5041 23.5083 18.4621 23.625C18.4201 23.7417 18.3994 23.8667 18.4001 24C18.4001 24.1333 18.4211 24.2583 18.4631 24.375C18.5051 24.4917 18.5758 24.6 18.6751 24.7L27.1001 33.125C27.3334 33.3583 27.6211 33.475 27.9631 33.475C28.3051 33.475 28.6008 33.35 28.8501 33.1Z" fill="white"/>
</svg>
