<svg width="20" height="20" viewBox="0 0 20 20" fill="none" xmlns="http://www.w3.org/2000/svg">
<path d="M1.6665 15.8327C1.6665 17.2493 2.74984 18.3327 4.1665 18.3327H15.8332C17.2498 18.3327 18.3332 17.2493 18.3332 15.8327V9.16602H1.6665V15.8327ZM15.8332 3.33268H14.1665V2.49935C14.1665 1.99935 13.8332 1.66602 13.3332 1.66602C12.8332 1.66602 12.4998 1.99935 12.4998 2.49935V3.33268H7.49984V2.49935C7.49984 1.99935 7.1665 1.66602 6.6665 1.66602C6.1665 1.66602 5.83317 1.99935 5.83317 2.49935V3.33268H4.1665C2.74984 3.33268 1.6665 4.41602 1.6665 5.83268V7.49935H18.3332V5.83268C18.3332 4.41602 17.2498 3.33268 15.8332 3.33268Z" fill="#9F9F9F"/>
</svg>
