<svg width="21" height="18" viewBox="0 0 21 18" fill="none" xmlns="http://www.w3.org/2000/svg">
<path d="M20.0237 3.14658H6.92846M4.5475 3.14658H0.976074M20.0237 15.0513H6.92846M4.5475 15.0513H0.976074M14.0713 9.09896H0.976074M20.0237 9.09896H16.4523M5.73798 0.765625C6.05371 0.765625 6.35652 0.89105 6.57977 1.11431C6.80303 1.33757 6.92846 1.64037 6.92846 1.9561V4.33705C6.92846 4.65279 6.80303 4.95559 6.57977 5.17885C6.35652 5.4021 6.05371 5.52753 5.73798 5.52753C5.42225 5.52753 5.11944 5.4021 4.89619 5.17885C4.67293 4.95559 4.5475 4.65279 4.5475 4.33705V1.9561C4.5475 1.64037 4.67293 1.33757 4.89619 1.11431C5.11944 0.89105 5.42225 0.765625 5.73798 0.765625V0.765625ZM5.73798 12.6704C6.05371 12.6704 6.35652 12.7958 6.57977 13.0191C6.80303 13.2423 6.92846 13.5451 6.92846 13.8609V16.2418C6.92846 16.5575 6.80303 16.8604 6.57977 17.0836C6.35652 17.3069 6.05371 17.4323 5.73798 17.4323C5.42225 17.4323 5.11944 17.3069 4.89619 17.0836C4.67293 16.8604 4.5475 16.5575 4.5475 16.2418V13.8609C4.5475 13.5451 4.67293 13.2423 4.89619 13.0191C5.11944 12.7958 5.42225 12.6704 5.73798 12.6704ZM15.2618 6.71801C15.5775 6.71801 15.8803 6.84343 16.1036 7.06669C16.3268 7.28995 16.4523 7.59275 16.4523 7.90848V10.2894C16.4523 10.6052 16.3268 10.908 16.1036 11.1312C15.8803 11.3545 15.5775 11.4799 15.2618 11.4799C14.9461 11.4799 14.6433 11.3545 14.42 11.1312C14.1967 10.908 14.0713 10.6052 14.0713 10.2894V7.90848C14.0713 7.59275 14.1967 7.28995 14.42 7.06669C14.6433 6.84343 14.9461 6.71801 15.2618 6.71801V6.71801Z" stroke="black" stroke-linecap="round" stroke-linejoin="round"/>
</svg>
